<svg width="869" height="132" viewBox="0 0 869 132" fill="none" xmlns="http://www.w3.org/2000/svg">
<g clip-path="url(#clip0_18_38)">
<path d="M150.728 44.224C150.728 54.208 147.571 61.76 141.256 66.88C135.027 71.9147 126.493 74.432 115.656 74.432H105.928V104H84.936V15.296H112.84C125.128 15.296 134.515 17.728 141 22.592C147.485 27.3707 150.728 34.5813 150.728 44.224ZM129.224 44.224C129.224 34.9227 123.891 30.272 113.224 30.272H105.928V59.328H114.248C119.027 59.328 122.696 58.0907 125.256 55.616C127.901 53.1413 129.224 49.344 129.224 44.224ZM214.55 33.984C218.646 33.984 222.401 34.6667 225.814 36.032L222.102 64.448H209.302V51.904C205.547 52.5867 202.219 54.6347 199.318 58.048C196.417 61.4613 194.155 65.7707 192.534 70.976V90.432H205.974V104H163.35V90.432H172.31V49.472H163.35V36.032H187.798L191.382 51.264C193.857 45.4613 196.971 41.152 200.726 38.336C204.481 35.4347 209.089 33.984 214.55 33.984ZM268.9 33.728C279.225 33.728 287.289 37.0133 293.092 43.584C298.98 50.0693 301.924 58.816 301.924 69.824C301.924 81.2587 299.023 90.176 293.22 96.576C287.417 102.976 279.311 106.176 268.9 106.176C258.489 106.176 250.383 103.019 244.58 96.704C238.777 90.304 235.876 81.3867 235.876 69.952C235.876 62.6987 237.156 56.384 239.716 51.008C242.361 45.5467 246.159 41.3227 251.108 38.336C256.143 35.264 262.073 33.728 268.9 33.728ZM268.9 48.704C264.719 48.704 261.647 50.4107 259.684 53.824C257.721 57.152 256.74 62.528 256.74 69.952C256.74 77.4613 257.721 82.9227 259.684 86.336C261.647 89.664 264.719 91.328 268.9 91.328C273.081 91.328 276.153 89.6213 278.116 86.208C280.079 82.7947 281.06 77.3333 281.06 69.824C281.06 62.4853 280.079 57.152 278.116 53.824C276.153 50.4107 273.081 48.704 268.9 48.704ZM366.514 33.728C371.378 33.728 374.919 35.3493 377.138 38.592C379.442 41.7493 380.594 46.784 380.594 53.696V104H363.314V56C363.314 53.5253 363.058 51.8187 362.546 50.88C362.119 49.9413 361.266 49.472 359.986 49.472C357.597 49.472 355.25 50.9653 352.946 53.952V104H338.61V56C338.61 53.5253 338.354 51.8187 337.842 50.88C337.415 49.9413 336.562 49.472 335.282 49.472C332.893 49.472 330.546 50.9653 328.242 53.952V104H310.706V36.032H325.426L326.834 42.56C329.053 39.488 331.229 37.2693 333.362 35.904C335.581 34.4533 338.141 33.728 341.042 33.728C343.687 33.728 345.906 34.4107 347.698 35.776C349.49 37.056 350.77 39.0613 351.538 41.792C356.146 36.416 361.138 33.728 366.514 33.728ZM454.144 100.032C447.744 104.128 440.32 106.176 431.872 106.176C423.168 106.176 416.597 103.957 412.16 99.52C407.808 95.0827 405.632 88.8533 405.632 80.832V49.984H391.424V36.032H405.632V21.312L425.856 18.88V36.032H447.744L445.696 49.984H425.856V80.832C425.856 84.16 426.624 86.5493 428.16 88C429.696 89.4507 432.171 90.176 435.584 90.176C439.851 90.176 443.819 89.152 447.488 87.104L454.144 100.032ZM487.246 75.968C488.526 86.2933 493.987 91.456 503.63 91.456C509.433 91.456 515.235 89.5787 521.038 85.824L529.102 96.832C525.774 99.7333 521.806 102.037 517.198 103.744C512.59 105.365 507.513 106.176 501.966 106.176C494.371 106.176 487.929 104.683 482.638 101.696C477.347 98.624 473.337 94.4 470.606 89.024C467.961 83.5627 466.638 77.248 466.638 70.08C466.638 63.2533 467.918 57.1093 470.478 51.648C473.123 46.1013 476.921 41.7493 481.87 38.592C486.905 35.3493 492.878 33.728 499.79 33.728C506.275 33.728 511.907 35.136 516.686 37.952C521.465 40.6827 525.134 44.6933 527.694 49.984C530.339 55.1893 531.662 61.4187 531.662 68.672C531.662 71.488 531.534 73.92 531.278 75.968H487.246ZM499.79 47.296C496.121 47.296 493.177 48.6613 490.958 51.392C488.739 54.0373 487.417 58.1333 486.99 63.68H511.95C511.779 52.7573 507.726 47.296 499.79 47.296ZM540.316 104L563.612 68.288L542.492 36.032H565.148L576.028 57.792L586.524 36.032H608.028L588.06 67.52L611.484 104H588.572L575.132 78.528L562.204 104H540.316ZM652.522 0.447998C656.021 0.447998 658.879 1.55733 661.098 3.77599C663.317 5.90933 664.426 8.59733 664.426 11.84C664.426 15.168 663.317 17.8987 661.098 20.032C658.879 22.1653 656.021 23.232 652.522 23.232C649.023 23.232 646.122 22.1653 643.818 20.032C641.599 17.8133 640.49 15.0827 640.49 11.84C640.49 8.59733 641.599 5.90933 643.818 3.77599C646.122 1.55733 649.023 0.447998 652.522 0.447998ZM664.682 90.176H682.09V104H625.258V90.176H644.458V49.856H625.898V36.032H664.682V90.176ZM743.224 6.84799C751.928 6.84799 759.693 8.29866 766.52 11.2L760.888 24.384C756.536 22.6773 751.715 21.824 746.424 21.824C742.413 21.824 739.512 22.5493 737.72 24C736.013 25.4507 735.16 27.84 735.16 31.168V40.256H757.304L755 54.336H735.16V104H715.064V54.336H700.728V40.256H715.064V30.528C715.064 23.5307 717.496 17.856 722.36 13.504C727.309 9.06666 734.264 6.84799 743.224 6.84799ZM818.31 104C815.238 113.131 810.673 120 804.614 124.608C798.555 129.301 790.449 131.947 780.294 132.544L777.99 118.208C784.475 117.355 789.254 115.904 792.326 113.856C795.483 111.808 798.001 108.523 799.878 104H792.838L771.334 36.032H792.71L805.894 91.072L820.23 36.032H840.966L818.31 104Z" fill="white"/>
<rect x="45" y="15" width="11" height="72" fill="white"/>
<rect x="3" y="15" width="34" height="81" fill="white"/>
<rect x="835" y="93" width="31" height="11" fill="white"/>
</g>
<defs>
<clipPath id="clip0_18_38">
<rect width="869" height="132" fill="white"/>
</clipPath>
</defs>
</svg>
