<svg width="783" height="141" viewBox="0 0 783 141" fill="none" xmlns="http://www.w3.org/2000/svg">
<rect x="46" y="15" width="20" height="49" fill="#67F3C2"/>
<rect y="15" width="23.5699" height="89" fill="white"/>
<rect y="15" width="37.3347" height="59.5848" fill="white"/>
<path d="M716.526 106.086C713.614 114.695 709.287 121.172 703.544 125.517C697.801 129.943 690.118 132.437 680.493 133L678.309 119.483C684.456 118.678 688.985 117.31 691.897 115.379C694.89 113.448 697.276 110.351 699.055 106.086H692.382L672 42H692.261L704.757 93.8965L718.346 42H738L716.526 106.086Z" fill="white"/>
<path d="M664.496 8.84802C673.2 8.84802 680.965 10.2987 687.792 13.2L682.16 26.384C677.808 24.6774 672.987 23.824 667.696 23.824C663.685 23.824 660.784 24.5494 658.992 26C657.285 27.4507 656.432 29.84 656.432 33.168V42.256H678.576L676.272 56.336H656.432V106H636.336V56.336H622V42.256H636.336V32.528C636.336 25.5307 638.768 19.856 643.632 15.504C648.581 11.0667 655.536 8.84802 664.496 8.84802Z" fill="white"/>
<path d="M597.264 2.448C600.763 2.448 603.621 3.55733 605.84 5.77599C608.059 7.90933 609.168 10.5973 609.168 13.84C609.168 17.168 608.059 19.8987 605.84 22.032C603.621 24.1653 600.763 25.232 597.264 25.232C593.765 25.232 590.864 24.1653 588.56 22.032C586.341 19.8133 585.232 17.0827 585.232 13.84C585.232 10.5973 586.341 7.90933 588.56 5.77599C590.864 3.55733 593.765 2.448 597.264 2.448ZM609.424 92.176H626.832V106H570V92.176H589.2V51.856H570.64V38.032H609.424V92.176Z" fill="white"/>
<path d="M494 106L517.296 70.288L496.176 38.032H518.832L529.712 59.792L540.208 38.032H561.712L541.744 69.52L565.168 106H542.256L528.816 80.528L515.888 106H494Z" fill="white"/>
<path d="M449.608 77.968C450.888 88.2934 456.349 93.456 465.992 93.456C471.795 93.456 477.597 91.5787 483.4 87.824L491.464 98.832C488.136 101.733 484.168 104.037 479.56 105.744C474.952 107.365 469.875 108.176 464.328 108.176C456.733 108.176 450.291 106.683 445 103.696C439.709 100.624 435.699 96.4 432.968 91.024C430.323 85.5627 429 79.248 429 72.08C429 65.2534 430.28 59.1094 432.84 53.648C435.485 48.1014 439.283 43.7494 444.232 40.592C449.267 37.3494 455.24 35.728 462.152 35.728C468.637 35.728 474.269 37.136 479.048 39.952C483.827 42.6827 487.496 46.6934 490.056 51.984C492.701 57.1894 494.024 63.4187 494.024 70.672C494.024 73.488 493.896 75.92 493.64 77.968H449.608ZM462.152 49.296C458.483 49.296 455.539 50.6614 453.32 53.392C451.101 56.0374 449.779 60.1334 449.352 65.68H474.312C474.141 54.7574 470.088 49.296 462.152 49.296Z" fill="white"/>
<path d="M430.72 102.032C424.32 106.128 416.896 108.176 408.448 108.176C399.744 108.176 393.173 105.957 388.736 101.52C384.384 97.0827 382.208 90.8533 382.208 82.832V51.984H368V38.032H382.208V23.312L402.432 20.88V38.032H424.32L422.272 51.984H402.432V82.832C402.432 86.16 403.2 88.5493 404.736 90C406.272 91.4507 408.747 92.176 412.16 92.176C416.427 92.176 420.395 91.152 424.064 89.104L430.72 102.032Z" fill="white"/>
<path d="M348.808 35.728C353.672 35.728 357.213 37.3494 359.432 40.592C361.736 43.7494 362.888 48.784 362.888 55.696V106H345.608V58C345.608 55.5254 345.352 53.8187 344.84 52.88C344.413 51.9414 343.56 51.472 342.28 51.472C339.891 51.472 337.544 52.9654 335.24 55.952V106H320.904V58C320.904 55.5254 320.648 53.8187 320.136 52.88C319.709 51.9414 318.856 51.472 317.576 51.472C315.187 51.472 312.84 52.9654 310.536 55.952V106H293V38.032H307.72L309.128 44.56C311.347 41.488 313.523 39.2694 315.656 37.904C317.875 36.4534 320.435 35.728 323.336 35.728C325.981 35.728 328.2 36.4107 329.992 37.776C331.784 39.056 333.064 41.0614 333.832 43.792C338.44 38.416 343.432 35.728 348.808 35.728Z" fill="white"/>
<path d="M254.024 35.728C264.349 35.728 272.413 39.0134 278.216 45.584C284.104 52.0694 287.048 60.816 287.048 71.824C287.048 83.2587 284.147 92.176 278.344 98.576C272.541 104.976 264.435 108.176 254.024 108.176C243.613 108.176 235.507 105.019 229.704 98.704C223.901 92.304 221 83.3867 221 71.952C221 64.6987 222.28 58.384 224.84 53.008C227.485 47.5467 231.283 43.3227 236.232 40.336C241.267 37.264 247.197 35.728 254.024 35.728ZM254.024 50.704C249.843 50.704 246.771 52.4107 244.808 55.824C242.845 59.152 241.864 64.528 241.864 71.952C241.864 79.4614 242.845 84.9227 244.808 88.336C246.771 91.664 249.843 93.328 254.024 93.328C258.205 93.328 261.277 91.6214 263.24 88.208C265.203 84.7947 266.184 79.3334 266.184 71.824C266.184 64.4854 265.203 59.152 263.24 55.824C261.277 52.4107 258.205 50.704 254.024 50.704Z" fill="white"/>
<path d="M207.2 35.984C211.296 35.984 215.051 36.6667 218.464 38.032L214.752 66.448H201.952V53.904C198.197 54.5867 194.869 56.6347 191.968 60.048C189.067 63.4613 186.805 67.7707 185.184 72.976V92.432H198.624V106H156V92.432H164.96V51.472H156V38.032H180.448L184.032 53.264C186.507 47.4613 189.621 43.152 193.376 40.336C197.131 37.4347 201.739 35.984 207.2 35.984Z" fill="white"/>
<path d="M125.592 35.728C134.125 35.728 140.397 38.8854 144.408 45.2C148.419 51.4294 150.424 60.304 150.424 71.824C150.424 78.8214 149.357 85.0934 147.224 90.64C145.176 96.1014 142.189 100.411 138.264 103.568C134.339 106.64 129.688 108.176 124.312 108.176C117.741 108.176 112.365 105.829 108.184 101.136V132.24L87.96 134.416V38.032H105.88L106.776 45.584C109.421 42.256 112.365 39.7814 115.608 38.16C118.936 36.5387 122.264 35.728 125.592 35.728ZM119.32 50.704C115.053 50.704 111.341 53.3494 108.184 58.64V87.312C109.635 89.36 111.128 90.896 112.664 91.92C114.285 92.8587 116.12 93.328 118.168 93.328C121.923 93.328 124.739 91.664 126.616 88.336C128.579 84.9227 129.56 79.504 129.56 72.08C129.56 64.0587 128.707 58.512 127 55.44C125.293 52.2827 122.733 50.704 119.32 50.704Z" fill="white"/>
<rect x="547" y="38" width="55" height="14" fill="white"/>
<rect x="737" y="92" width="38" height="14" fill="white"/>
</svg>
