<svg width="757" height="141" viewBox="0 0 757 141" fill="none" xmlns="http://www.w3.org/2000/svg">
<path d="M718.3 109.949C715.634 117.831 711.672 123.762 706.414 127.74C701.156 131.792 694.121 134.075 685.308 134.591L683.309 122.215C688.937 121.478 693.084 120.226 695.75 118.458C698.49 116.69 700.675 113.853 702.304 109.949H696.194L677.532 51.2727H696.083L707.525 98.7884L719.966 51.2727H737.961L718.3 109.949Z" fill="#F1F1F1"/>
<path d="M670.662 20.9194C678.631 20.9194 685.741 22.2476 691.991 24.9041L686.835 36.9751C682.85 35.4125 678.436 34.6312 673.592 34.6312C669.92 34.6312 667.263 35.2953 665.622 36.6235C664.06 37.9518 663.279 40.1394 663.279 43.1865V51.5073H683.553L681.444 64.3987H663.279V109.87H644.879V64.3987H631.753V51.5073H644.879V42.6005C644.879 36.1938 647.106 30.9982 651.559 27.0136C656.091 22.9508 662.458 20.9194 670.662 20.9194Z" fill="#F1F1F1"/>
<path d="M609.105 15.0596C612.309 15.0596 614.926 16.0753 616.957 18.1066C618.989 20.0599 620.004 22.521 620.004 25.4899C620.004 28.537 618.989 31.0371 616.957 32.9904C614.926 34.9436 612.309 35.9202 609.105 35.9202C605.902 35.9202 603.246 34.9436 601.136 32.9904C599.105 30.959 598.089 28.4588 598.089 25.4899C598.089 22.521 599.105 20.0599 601.136 18.1066C603.246 16.0753 605.902 15.0596 609.105 15.0596ZM620.239 97.2131H636.177V109.87H584.143V97.2131H601.722V60.2968H584.729V47.6397H620.239V97.2131Z" fill="#F1F1F1"/>
<path d="M514.558 109.87L535.888 77.1727L516.551 47.6396H537.294L547.256 67.5628L556.866 47.6396H576.555L558.272 76.4696L579.719 109.87H558.741L546.435 86.5483L534.599 109.87H514.558Z" fill="#F1F1F1"/>
<path d="M475.745 84.2044C476.917 93.6582 481.917 98.385 490.746 98.385C496.059 98.385 501.372 96.6662 506.684 93.2284L514.068 103.307C511.021 105.964 507.388 108.073 503.169 109.636C498.95 111.12 494.301 111.862 489.222 111.862C482.269 111.862 476.37 110.495 471.526 107.761C466.682 104.948 463.01 101.08 460.51 96.1583C458.088 91.158 456.877 85.3764 456.877 78.8135C456.877 72.5631 458.049 66.9377 460.392 61.9374C462.814 56.859 466.291 52.8744 470.823 49.9836C475.432 47.0146 480.902 45.5302 487.23 45.5302C493.168 45.5302 498.324 46.8193 502.7 49.3976C507.075 51.8977 510.435 55.5698 512.779 60.4139C515.201 65.1798 516.412 70.8833 516.412 77.5243C516.412 80.1026 516.294 82.3293 516.06 84.2044H475.745ZM487.23 57.9528C483.87 57.9528 481.175 59.2029 479.144 61.703C477.112 64.1251 475.901 67.8753 475.511 72.9537H498.364C498.207 62.9531 494.496 57.9528 487.23 57.9528Z" fill="#F1F1F1"/>
<path d="M458.451 106.237C452.592 109.987 445.794 111.862 438.06 111.862C430.09 111.862 424.074 109.831 420.012 105.768C416.027 101.705 414.035 96.0019 414.035 88.6577V60.4138H401.026V47.6395H414.035V34.1621L432.551 31.9354V47.6395H452.592L450.717 60.4138H432.551V88.6577C432.551 91.7048 433.255 93.8924 434.661 95.2206C436.067 96.5488 438.333 97.2129 441.458 97.2129C445.365 97.2129 448.998 96.2754 452.357 94.4003L458.451 106.237Z" fill="#F1F1F1"/>
<path d="M383.454 45.5302C387.908 45.5302 391.15 47.0146 393.181 49.9836C395.291 52.8744 396.346 57.484 396.346 63.8125V109.87H380.524V65.922C380.524 63.6563 380.29 62.0937 379.821 61.2343C379.43 60.3748 378.649 59.9451 377.477 59.9451C375.29 59.9451 373.141 61.3124 371.031 64.0469V109.87H357.906V65.922C357.906 63.6563 357.671 62.0937 357.202 61.2343C356.812 60.3748 356.031 59.9451 354.859 59.9451C352.671 59.9451 350.522 61.3124 348.413 64.0469V109.87H332.357V47.6397H345.835L347.124 53.6166C349.155 50.8039 351.147 48.7725 353.101 47.5225C355.132 46.1943 357.476 45.5302 360.132 45.5302C362.554 45.5302 364.586 46.1552 366.226 47.4053C367.867 48.5772 369.039 50.4133 369.742 52.9134C373.961 47.9912 378.532 45.5302 383.454 45.5302Z" fill="#F1F1F1"/>
<path d="M296.671 45.5302C306.125 45.5302 313.508 48.5382 318.821 54.5542C324.212 60.492 326.908 68.5003 326.908 78.5791C326.908 89.0485 324.251 97.2131 318.938 103.073C313.625 108.933 306.203 111.862 296.671 111.862C287.139 111.862 279.717 108.972 274.404 103.19C269.091 97.3303 266.435 89.1657 266.435 78.6963C266.435 72.0552 267.607 66.2736 269.951 61.3514C272.373 56.3511 275.85 52.4837 280.381 49.7492C284.991 46.9365 290.421 45.5302 296.671 45.5302ZM296.671 59.2419C292.843 59.2419 290.03 60.8045 288.233 63.9297C286.436 66.9768 285.538 71.899 285.538 78.6963C285.538 85.5717 286.436 90.572 288.233 93.6972C290.03 96.7443 292.843 98.2678 296.671 98.2678C300.5 98.2678 303.312 96.7052 305.109 93.58C306.906 90.4548 307.805 85.4545 307.805 78.5791C307.805 71.8599 306.906 66.9768 305.109 63.9297C303.312 60.8045 300.5 59.2419 296.671 59.2419Z" fill="#F1F1F1"/>
<path d="M253.8 45.7645C257.55 45.7645 260.988 46.3896 264.113 47.6396L260.714 73.6569H248.995V62.1718C245.557 62.7968 242.51 64.672 239.854 67.7972C237.197 70.9223 235.127 74.8679 233.642 79.6338V97.4474H245.948V109.87H206.922V97.4474H215.126V59.9451H206.922V47.6396H229.306L232.588 61.5858C234.853 56.273 237.705 52.3274 241.143 49.7492C244.581 47.0927 248.8 45.7645 253.8 45.7645Z" fill="#F1F1F1"/>
<rect x="563.084" y="47.6104" width="50.3571" height="12.8182" fill="#F1F1F1"/>
<path d="M207.403 60.224C207.403 70.208 204.246 77.76 197.931 82.88C191.702 87.9147 183.169 90.432 172.331 90.432H162.603V120H141.611V31.296H169.515C181.803 31.296 191.19 33.728 197.675 38.592C204.161 43.3707 207.403 50.5813 207.403 60.224ZM185.899 60.224C185.899 50.9227 180.566 46.272 169.899 46.272H162.603V75.328H170.923C175.702 75.328 179.371 74.0907 181.931 71.616C184.577 69.1413 185.899 65.344 185.899 60.224Z" fill="#F1F1F1"/>
<rect x="695.659" y="108.157" width="9.62411" height="10.9876" transform="rotate(-17.322 695.659 108.157)" fill="#F1F1F1"/>
<rect y="13.7338" width="116.874" height="121.773" rx="58.4369" fill="#282828"/>
<mask id="mask0_24_252" style="mask-type:alpha" maskUnits="userSpaceOnUse" x="0" y="13" width="117" height="123">
<rect y="13.7338" width="116.874" height="121.773" rx="58.4369" fill="white"/>
</mask>
<g mask="url(#mask0_24_252)">
<rect x="63.8969" y="48.2593" width="6.95753" height="97.4055" fill="#EAEAEA"/>
<rect width="37.7695" height="59.636" transform="matrix(-1 0 0 1 63.8969 48.2593)" fill="#EAEAEA"/>
<rect width="22.8605" height="22.8605" transform="matrix(-1 0 0 1 102.66 48.2593)" fill="#67F3C2"/>
<rect width="10.9338" height="10.9338" transform="matrix(-1 0 0 1 90.7331 85.0349)" fill="#67F3C2"/>
</g>
</svg>
