<svg width="604" height="108" viewBox="0 0 604 108" fill="none" xmlns="http://www.w3.org/2000/svg">
<path d="M538.252 24.9271L538.589 25.7443L562.714 84.9088L554.134 101.226H571.631L604 24.9158H586.57L571.631 64.0486L556.198 24.9158H538.252V24.9271Z" fill="white"/>
<path d="M540.032 3C532.387 3 526.028 4.5028 521.575 8.53304L521.54 8.56719L521.506 8.62412C517.408 12.438 515.686 18.1191 515.525 24.5515H507.571V40.1032H515.388V89.7867H532.204V40.1032H545.266V24.5515H532.387C532.456 19.121 535.819 18.6997 540.043 18.6769H544.853V3.02277L540.032 3Z" fill="white"/>
<path d="M496.59 3C494 3 491.388 4.09779 489.547 5.89314C487.613 7.72279 486.531 10.4101 486.531 13.0059C486.531 15.6246 487.602 18.3119 489.489 20.1873C491.342 22.017 493.989 23.1262 496.613 23.1262C499.237 23.1262 501.884 22.0284 503.736 20.1873C505.624 18.3119 506.694 15.6246 506.694 13.0059C506.694 10.4101 505.601 7.72279 503.667 5.89314C501.826 4.09779 499.214 3 496.624 3H496.59ZM488.166 25.1388V90.6633H505.025V25.1388H488.166Z" fill="white"/>
<path d="M418.412 24.9271L418.985 25.8439L438.912 57.3455L418.154 89.7866H436.856L447.999 71.6305L459.546 89.7866H478.641L457.94 57.0625L478.495 24.9158H459.905L448.875 42.7889L437.508 24.9158H418.412V24.9271Z" fill="white"/>
<path d="M394.052 23.1971H393.685L393.65 23.2545C387.958 23.3235 382.61 24.6567 377.836 27.2542L377.79 27.2083L377.4 27.4267C377.377 27.4267 377.377 27.4496 377.354 27.4611C372.488 30.1506 368.575 34.1158 365.74 39.0235H365.683L365.511 39.3223C362.584 44.4599 361.173 50.4249 361.173 56.9417C361.173 63.4355 362.538 69.412 365.361 74.5956L365.384 74.6416L365.407 74.6645C368.265 79.6642 372.236 83.6984 377.136 86.5142L377.182 86.5487L377.216 86.5717C382.209 89.3071 387.832 90.6633 393.823 90.6633C399.744 90.6633 405.31 89.3071 410.302 86.6522H410.532L410.704 86.4338C415.696 83.6179 419.747 79.5607 422.594 74.5036C423.822 72.3199 424.774 69.9982 425.474 67.5616L425.704 66.7916H407.709L407.537 67.1019C406.01 69.7683 404.197 71.5498 401.856 72.8256C399.389 74.1129 396.806 74.745 393.823 74.745C390.85 74.745 388.28 74.1128 385.812 72.8371C383.574 71.5728 381.772 69.7913 380.246 67.1364C379.649 66.033 379.236 64.6997 378.88 63.2976H426.427L426.507 62.7804C426.782 60.8724 426.92 58.9186 426.92 56.9072C426.92 50.402 425.52 44.4369 422.594 39.3108C419.793 34.2078 415.731 30.1391 410.67 27.3807C405.689 24.5763 400.054 23.1626 394.052 23.1626V23.1971ZM393.949 39.1499H394.041C401.19 39.3338 406.102 43.0117 408.753 49.425H379.087C381.75 42.7703 387.281 39.2189 393.949 39.1499Z" fill="white"/>
<path d="M331.508 12.6431V26.4353H323.478V42.133H331.508V69.1957C331.508 76.0011 333.32 81.9445 337.599 85.9256L337.633 85.971L337.702 86.0277C342.153 90.0429 348.508 91.54 356.16 91.54H360.966V76.1032L356.309 75.9444C352.604 75.831 351.124 74.969 350.091 73.7667C349.093 72.6098 348.348 70.4661 348.313 67.0634V42.1444H361.173V26.458H348.313V12.6658L331.508 12.6431Z" fill="white"/>
<path d="M294.98 24.9271C289.137 24.9271 283.77 26.3907 279.173 29.2498L279.116 29.193L278.754 29.4313L278.709 29.454L278.686 29.4767C278.29 29.7376 278.029 29.9986 277.724 30.2822V25.7213H261.237L261.237 104.251H277.724V86.1931C278.041 86.4767 278.324 86.7604 278.72 87.0213L278.799 87.1121L278.867 87.1575C283.544 90.1187 289.047 91.5482 294.991 91.5482C300.664 91.5482 305.986 90.1527 310.674 87.4184H310.742L310.878 87.339C315.69 84.5253 319.506 80.4296 322.122 75.3695C324.817 70.2753 326.108 64.455 326.108 58.1242C326.108 51.8047 324.805 46.0185 322.099 40.9811C319.495 35.9323 315.668 31.8706 310.855 29.125C306.315 26.4361 301.117 25.1086 295.625 25.0065V24.9158L294.98 24.9271ZM293.565 40.652V40.6747H293.655C296.826 40.6974 299.43 41.3441 301.785 42.6829C304.107 43.999 305.828 45.7802 307.209 48.4578L307.232 48.5032L307.266 48.5486C308.647 51.0559 309.417 54.1759 309.417 58.1469C309.417 62.0498 308.659 65.2152 307.232 67.9154L307.186 67.9948V68.0175C305.805 70.661 304.061 72.499 301.74 73.8718C299.373 75.1993 296.758 75.88 293.565 75.88C290.541 75.88 287.96 75.1879 285.491 73.7697C283.136 72.3742 281.336 70.5022 279.875 67.802C278.459 65.1811 277.701 62.0951 277.701 58.2717C277.701 54.4369 278.459 51.3622 279.875 48.7301C281.336 46.0298 283.136 44.1465 285.48 42.7623C287.96 41.3441 290.541 40.652 293.565 40.652Z" fill="white"/>
<path d="M189.101 24.9158C184.366 24.9158 179.848 26.0489 175.854 28.2922C175.649 28.4066 175.546 28.5211 175.386 28.647V25.9344H158.671V91.517H175.386V56.3679C175.386 50.4964 176.733 46.7652 178.855 44.396C181.114 41.878 183.67 40.7563 187.88 40.7563C192.011 40.7563 194.407 41.8093 196.415 44.0183C198.332 46.1242 199.553 49.4091 199.553 54.7312V91.5284H216.166V56.3794C216.166 50.5078 217.512 46.7766 219.634 44.4074C221.893 41.8894 224.449 40.7677 228.66 40.7677C232.71 40.7677 235.072 41.8093 237.092 44.0297C239.008 46.1357 240.241 49.4205 240.241 54.7427V91.5399H256.854V53.93C256.854 45.2315 254.446 37.7805 249.209 32.5957C244.223 27.5253 237.434 24.9272 229.88 24.9272C224.426 24.9272 219.269 26.3922 214.819 29.2879C212.822 30.5698 211.168 32.2409 209.685 34.0493C208.133 32.1836 206.399 30.4783 204.322 29.1735C199.895 26.335 194.681 24.9386 189.078 24.9386L189.101 24.9158Z" fill="white"/>
<path d="M123.599 24.9158L123.011 24.9385C117.666 25.0179 112.571 26.2773 108.03 28.6486C107.554 28.8755 107.102 29.1705 106.649 29.4202C102.074 32.0751 98.3599 35.8761 95.665 40.562H95.6084L95.4386 40.8683L95.4726 40.8116L95.4952 40.7889C95.4726 40.823 95.4612 40.8456 95.4386 40.8683C92.5511 45.94 91.1697 51.8286 91.1697 58.2619C91.1697 64.6724 92.5058 70.5837 95.2914 75.6894L95.3254 75.7348L95.348 75.7575C98.1675 80.7044 102.097 84.6869 106.932 87.4667L106.988 87.5007H107.011C111.925 90.2011 117.485 91.5399 123.396 91.5399C129.227 91.5399 134.73 90.201 139.656 87.5801H139.837L140.041 87.3759C144.978 84.5961 148.975 80.5909 151.783 75.5873C154.648 70.4702 156.041 64.5816 156.041 58.2051C156.041 51.7833 154.659 45.906 151.783 40.8456C149.02 35.808 145 31.7688 140.007 29.0571C135.07 26.3 129.51 24.9158 123.599 24.9158ZM123.498 40.6755H123.565C126.453 40.6982 128.955 41.3108 131.356 42.6156L131.378 42.6383L131.435 42.6724C133.7 43.8524 135.477 45.5883 136.983 48.2887L137.029 48.3568C138.422 50.8075 139.248 54.0411 139.248 58.3072C139.248 62.4032 138.444 65.5347 137.063 68.0308L136.927 68.3599C135.432 70.9921 133.632 72.7621 131.322 74.0216C128.887 75.281 126.34 75.9163 123.396 75.9163C120.463 75.9163 117.926 75.2923 115.492 74.0329C113.284 72.7848 111.506 71.0262 110.012 68.428C108.641 65.8864 107.849 62.5961 107.849 58.3186C107.849 54.0411 108.641 50.7848 109.989 48.3227C111.506 45.6224 113.284 43.8864 115.549 42.7064L115.583 42.6837L115.628 42.6497C118.051 41.3335 120.576 40.6868 123.486 40.6868L123.498 40.6755Z" fill="white"/>
<path d="M93.7887 24.9158L89.111 24.9387C83.7635 24.767 78.405 27.6288 75.0893 30.4449V25.946H58.7344V91.5399H75.0893V55.3774C75.0893 45.5899 80.7717 41.9954 87.2244 41.9954H93.7997V24.9158H93.7887Z" fill="white"/>
<path d="M0 10.0131V90.6633H16.4413V60.3385H25.9243C34.5657 60.3385 41.8379 58.2715 46.9218 53.4558C51.826 48.8333 54.3512 42.3822 54.3512 35.2269C54.3512 28.0035 51.7813 21.4956 46.7985 16.873C41.7146 12.0801 34.4872 10.0131 25.9243 10.0131H0ZM16.4413 25.5275H25.9243C31.0306 25.5275 33.982 26.686 35.3063 27.9353C36.8213 29.3437 37.708 31.3426 37.708 35.2269C37.708 39.0658 36.8327 40.9171 35.2391 42.3027C33.6792 43.6542 30.75 44.7219 25.9243 44.7219H16.4413V25.5275Z" fill="white"/>
<rect x="468.122" y="24.9158" width="32.4354" height="14.0261" fill="white"/>
</svg>
