<svg width="832" height="116" viewBox="0 0 832 116" fill="none" xmlns="http://www.w3.org/2000/svg">
<g clip-path="url(#clip0_33_547)">
<path d="M757 25.0129L757.384 25.9451L784.904 93.4357L775.117 112.049H795.076L832 25H812.118L795.076 69.6399L777.471 25H757V25.0129Z" fill="black"/>
<path d="M759.029 0C750.309 0 743.055 1.71429 737.974 6.31169L737.935 6.35065L737.896 6.41559C733.221 10.7662 731.257 17.2468 731.074 24.5844H722V42.3247H730.917V99H750.099V42.3247H765V24.5844H750.309C750.387 18.3896 754.224 17.9091 759.042 17.8831H764.529V0.0259796L759.029 0Z" fill="black"/>
<path d="M709.474 0C706.52 0 703.54 1.25228 701.439 3.30029C699.234 5.38742 698 8.45291 698 11.414C698 14.4013 699.221 17.4667 701.374 19.6061C703.487 21.6932 706.507 22.9585 709.5 22.9585C712.493 22.9585 715.513 21.7062 717.626 19.6061C719.779 17.4667 721 14.4013 721 11.414C721 8.45291 719.753 5.38742 717.547 3.30029C715.447 1.25228 712.467 0 709.513 0H709.474ZM699.864 25.2544V100H719.096V25.2544H699.864Z" fill="black"/>
<path d="M620.295 25.0129L620.948 26.0588L643.679 61.9935L620 99H641.334L654.045 78.2888L667.217 99H689L665.385 61.6707L688.833 25H667.627L655.045 45.3884L642.077 25H620.295V25.0129Z" fill="black"/>
<path d="M592.507 23.0393H592.088L592.048 23.1049C585.555 23.1836 579.455 24.7044 574.009 27.6675L573.956 27.615L573.511 27.8641C573.485 27.8641 573.485 27.8904 573.459 27.9035C567.908 30.9714 563.444 35.4946 560.21 41.093H560.145L559.949 41.4338C556.61 47.2944 555 54.0989 555 61.5328C555 68.9404 556.558 75.758 559.778 81.671L559.804 81.7235L559.831 81.7497C563.09 87.4529 567.62 92.0548 573.21 95.267L573.262 95.3063L573.302 95.3325C578.996 98.4529 585.411 100 592.245 100C599 100 605.349 98.4529 611.044 95.4243H611.306L611.502 95.1752C617.197 91.9631 621.818 87.3349 625.065 81.5662C626.465 79.0751 627.552 76.4267 628.351 73.6472L628.612 72.7688H608.085L607.889 73.1228C606.148 76.1645 604.079 78.1967 601.409 79.652C598.594 81.1204 595.648 81.8415 592.245 81.8415C588.854 81.8415 585.922 81.1204 583.107 79.6651C580.554 78.2229 578.499 76.1907 576.758 73.1621C576.077 71.9035 575.606 70.3826 575.2 68.7831H629.437L629.529 68.1931C629.843 66.0167 630 63.7878 630 61.4934C630 54.0727 628.403 47.2682 625.065 41.4207C621.87 35.5995 617.236 30.9583 611.463 27.8117C605.781 24.6126 599.353 23 592.507 23V23.0393ZM592.389 41.2372H592.493C600.649 41.447 606.252 45.6424 609.277 52.9583H575.435C578.473 45.3671 584.783 41.3159 592.389 41.2372Z" fill="black"/>
<path d="M521.16 11V26.7332H512V44.64H521.16V75.5112C521.16 83.2743 523.228 90.0541 528.109 94.5955L528.148 94.6472L528.226 94.7119C533.304 99.2921 540.553 101 549.282 101H554.764V83.3907L549.452 83.2096C545.225 83.0802 543.537 82.0969 542.359 80.7254C541.221 79.4057 540.37 76.9603 540.331 73.0788V44.653H555V26.759H540.331V11.0259L521.16 11Z" fill="black"/>
<path d="M479.492 25.0129C472.827 25.0129 466.704 26.6825 461.46 29.9439L461.396 29.8792L460.982 30.151L460.931 30.1769L460.905 30.2027C460.453 30.5004 460.156 30.7981 459.807 31.1217V25.9189H441L441 115.5H459.807V94.9008C460.169 95.2243 460.491 95.5479 460.943 95.8456L461.034 95.9491L461.111 96.0009C466.446 99.3788 472.724 101.009 479.505 101.009C485.976 101.009 492.047 99.4176 497.394 96.2985H497.472L497.627 96.2079C503.117 92.9983 507.47 88.3261 510.453 82.5539C513.527 76.7429 515 70.1035 515 62.8818C515 55.673 513.515 49.0725 510.427 43.3261C507.457 37.5669 503.091 32.9336 497.601 29.8015C492.421 26.7342 486.493 25.22 480.228 25.1035V25L479.492 25.0129ZM477.877 42.9508V42.9767H477.981C481.597 43.0026 484.568 43.7403 487.255 45.2675C489.903 46.7688 491.866 48.8007 493.442 51.8551L493.468 51.9068L493.507 51.9586C495.082 54.8188 495.961 58.3779 495.961 62.9077C495.961 67.3598 495.095 70.9707 493.468 74.0509L493.416 74.1415V74.1674C491.84 77.1829 489.851 79.2795 487.203 80.8456C484.504 82.3598 481.52 83.1363 477.877 83.1363C474.429 83.1363 471.484 82.3469 468.668 80.7291C465.981 79.1372 463.927 77.0017 462.261 73.9215C460.646 70.9318 459.781 67.4116 459.781 63.05C459.781 58.6756 460.646 55.1682 462.261 52.1656C463.927 49.0854 465.981 46.937 468.655 45.3581C471.484 43.7403 474.429 42.9508 477.877 42.9508Z" fill="black"/>
<path d="M358.713 25C353.311 25 348.157 26.2926 343.602 28.8516C343.367 28.9821 343.25 29.1127 343.068 29.2563V26.162H324V100.974H343.068V60.8784C343.068 54.1806 344.604 49.9242 347.025 47.2216C349.602 44.3492 352.517 43.0697 357.32 43.0697C362.032 43.0697 364.765 44.2709 367.056 46.7907C369.243 49.1931 370.635 52.9402 370.635 59.0113V100.987H389.586V60.8914C389.586 54.1936 391.122 49.9373 393.543 47.2347C396.12 44.3623 399.035 43.0828 403.838 43.0828C408.459 43.0828 411.153 44.2709 413.457 46.8038C415.644 49.2062 417.049 52.9533 417.049 59.0244V101H436V58.0974C436 48.1747 433.254 39.6751 427.28 33.7607C421.592 27.9768 413.847 25.013 405.231 25.013C399.009 25.013 393.126 26.6842 388.05 29.9874C385.772 31.4497 383.885 33.3559 382.193 35.4188C380.423 33.2907 378.445 31.3453 376.076 29.8569C371.026 26.6189 365.078 25.0261 358.687 25.0261L358.713 25Z" fill="black"/>
<path d="M283.994 25L283.322 25.0259C277.225 25.1165 271.413 26.5531 266.233 29.2582C265.691 29.517 265.174 29.8535 264.657 30.1383C259.439 33.1669 255.202 37.5027 252.128 42.8481H252.063L251.87 43.1975L251.908 43.1328L251.934 43.107C251.908 43.1458 251.895 43.1717 251.87 43.1975C248.576 48.983 247 55.7003 247 63.0388C247 70.3515 248.524 77.0947 251.702 82.9189L251.74 82.9707L251.766 82.9966C254.983 88.6396 259.465 93.1826 264.98 96.3535L265.045 96.3924H265.07C270.676 99.4728 277.018 101 283.761 101C290.413 101 296.691 99.4727 302.31 96.483H302.516L302.749 96.25C308.38 93.079 312.94 88.5102 316.143 82.8025C319.411 76.9653 321 70.248 321 62.9741C321 55.6485 319.424 48.9441 316.143 43.1717C312.992 37.4251 308.406 32.8174 302.71 29.7241C297.078 26.579 290.736 25 283.994 25ZM283.877 42.9775H283.955C287.249 43.0034 290.103 43.7023 292.841 45.1907L292.867 45.2166L292.932 45.2554C295.515 46.6015 297.543 48.5818 299.261 51.6621L299.313 51.7398C300.902 54.5354 301.844 58.2241 301.844 63.0906C301.844 67.7629 300.927 71.3351 299.352 74.1826L299.197 74.5579C297.492 77.5606 295.438 79.5797 292.803 81.0163C290.026 82.453 287.119 83.1778 283.761 83.1778C280.416 83.1778 277.522 82.4659 274.745 81.0293C272.226 79.6056 270.198 77.5995 268.493 74.6356C266.931 71.7364 266.026 67.983 266.026 63.1035C266.026 58.2241 266.931 54.5095 268.468 51.701C270.198 48.6206 272.226 46.6403 274.81 45.2943L274.849 45.2684L274.9 45.2296C277.664 43.7282 280.545 42.9905 283.864 42.9905L283.877 42.9775Z" fill="black"/>
<path d="M249.987 25L244.651 25.0261C238.551 24.8302 232.439 28.0948 228.657 31.3072V26.1752H210V101H228.657V59.7485C228.657 48.5835 235.139 44.4832 242.499 44.4832H250V25H249.987Z" fill="black"/>
<path d="M143 8V100H161.755V65.4077H172.573C182.43 65.4077 190.726 63.0497 196.525 57.5564C202.119 52.2833 205 44.9244 205 36.7621C205 28.5222 202.068 21.0984 196.384 15.8254C190.585 10.358 182.34 8 172.573 8H143ZM161.755 25.6978H172.573C178.397 25.6978 181.764 27.0193 183.275 28.4444C185.003 30.051 186.015 32.3312 186.015 36.7621C186.015 41.1412 185.016 43.2531 183.198 44.8337C181.419 46.3754 178.077 47.5933 172.573 47.5933H161.755V25.6978Z" fill="black"/>
<rect x="677" y="25" width="37" height="16" fill="black"/>
<rect x="53" y="7" width="20" height="108" fill="black"/>
<rect width="56" height="88" transform="matrix(-1 0 0 1 56 7)" fill="black"/>
<rect width="33" height="34" transform="matrix(-1 0 0 1 112 7)" fill="black"/>
<rect width="20" height="20" transform="matrix(-1 0 0 1 99 46)" fill="black"/>
</g>
<defs>
<clipPath id="clip0_33_547">
<rect width="832" height="116" fill="white"/>
</clipPath>
</defs>
</svg>
