<svg width="604" height="108" viewBox="0 0 604 108" fill="none" xmlns="http://www.w3.org/2000/svg">
<path d="M540 25.011L540.327 25.8034L563.812 83.177L555.46 99H572.491L604 25H587.034L572.491 62.9482L557.468 25H540V25.011Z" fill="white"/>
<path d="M539.862 5C532.359 5 526.117 6.45455 521.745 10.3554L521.712 10.3884L521.678 10.4435C517.656 14.135 515.966 19.6336 515.808 25.8595H508V40.9118H515.673V89H532.178V40.9118H545V25.8595H532.359C532.426 20.6033 535.727 20.1956 539.874 20.1736H544.594V5.02204L539.862 5Z" fill="white"/>
<path d="M495.977 5C493.409 5 490.817 6.06444 488.991 7.80524C487.073 9.57931 486 12.185 486 14.7019C486 17.2411 487.062 19.8467 488.934 21.6651C490.772 23.4392 493.397 24.5147 496 24.5147C498.603 24.5147 501.228 23.4503 503.066 21.6651C504.938 19.8467 506 17.2411 506 14.7019C506 12.185 504.916 9.57931 502.998 7.80524C501.171 6.06444 498.58 5 496.011 5H495.977ZM487.621 26.4662V90H504.345V26.4662H487.621Z" fill="white"/>
<path d="M413.261 25.0113L413.838 25.93L433.934 57.4943L413 90H431.861L443.098 71.8077L454.743 90H474L453.123 57.2108L473.853 25H455.105L443.981 42.9087L432.518 25H413.261V25.0113Z" fill="white"/>
<path d="M387.006 24.0337H386.648L386.615 24.0899C381.074 24.1573 375.868 25.4609 371.221 28.0007L371.176 27.9557L370.796 28.1693C370.774 28.1693 370.774 28.1917 370.751 28.203C366.015 30.8326 362.205 34.7097 359.446 39.5083H359.39L359.223 39.8004C356.374 44.8238 355 50.6562 355 57.0281C355 63.3775 356.329 69.2212 359.078 74.2895L359.1 74.3344L359.122 74.3569C361.904 79.2454 365.769 83.1899 370.539 85.9431L370.584 85.9769L370.617 85.9993C375.477 88.6739 380.951 90 386.782 90C392.547 90 397.965 88.6739 402.824 86.078H403.048L403.215 85.8645C408.075 83.1112 412.018 79.1442 414.788 74.1996C415.984 72.0644 416.911 69.7943 417.592 67.4119L417.816 66.659H400.299L400.132 66.9624C398.646 69.5696 396.881 71.3114 394.602 72.5588C392.2 73.8175 389.687 74.4356 386.782 74.4356C383.889 74.4356 381.387 73.8175 378.985 72.5701C376.806 71.3339 375.052 69.592 373.567 66.9961C372.986 65.9173 372.584 64.6137 372.237 63.2426H418.52L418.598 62.7369C418.866 60.8715 419 58.961 419 56.9944C419 50.6338 417.637 44.8013 414.788 39.7892C412.063 34.7996 408.108 30.8214 403.182 28.1243C398.333 25.3823 392.848 24 387.006 24V24.0337ZM386.905 39.6319H386.994C393.954 39.8117 398.735 43.4078 401.316 49.6785H372.438C375.03 43.1718 380.415 39.6993 386.905 39.6319Z" fill="white"/>
<path d="M323.882 15V28.111H316V43.0334H323.882V68.7593C323.882 75.2286 325.661 80.8784 329.861 84.6629L329.895 84.706L329.962 84.7599C334.331 88.5768 340.569 90 348.079 90H352.797V75.3256L348.226 75.1747C344.589 75.0668 343.136 74.2474 342.123 73.1045C341.143 72.0047 340.411 69.9669 340.378 66.7323V43.0441H353V28.1325H340.378V15.0216L323.882 15Z" fill="white"/>
<path d="M286.73 26.011C281.236 26.011 276.189 27.4315 271.866 30.2064L271.813 30.1514L271.472 30.3826L271.429 30.4046L271.408 30.4266C271.035 30.6799 270.79 30.9332 270.503 31.2085V26.7818H255L255 103H270.503V85.4736C270.801 85.7489 271.067 86.0242 271.44 86.2774L271.514 86.3655L271.578 86.4096C275.976 89.2836 281.151 90.6711 286.74 90.6711C292.075 90.6711 297.079 89.3166 301.487 86.6628H301.551L301.679 86.5858C306.204 83.8549 309.792 79.8797 312.252 74.9685C314.786 70.0243 316 64.3754 316 58.2309C316 52.0975 314.775 46.4815 312.231 41.5924C309.782 36.6922 306.183 32.7501 301.658 30.0853C297.388 27.4755 292.501 26.1872 287.337 26.0881V26L286.73 26.011ZM285.399 41.2731V41.2951H285.484C288.465 41.3171 290.914 41.9448 293.129 43.2441C295.312 44.5215 296.93 46.2503 298.229 48.849L298.25 48.8931L298.282 48.9371C299.581 51.3707 300.305 54.3989 300.305 58.2529C300.305 62.0409 299.592 65.1132 298.25 67.7339L298.208 67.811V67.833C296.909 70.3987 295.269 72.1826 293.086 73.515C290.861 74.8034 288.402 75.4641 285.399 75.4641C282.556 75.4641 280.128 74.7924 277.807 73.4159C275.592 72.0615 273.899 70.2446 272.526 67.6238C271.195 65.0801 270.482 62.085 270.482 58.3741C270.482 54.6521 271.195 51.668 272.526 49.1133C273.899 46.4926 275.592 44.6646 277.796 43.3212C280.128 41.9448 282.556 41.2731 285.399 41.2731Z" fill="white"/>
<path d="M184.134 26C179.601 26 175.275 27.0885 171.451 29.2434C171.255 29.3534 171.156 29.4633 171.004 29.5843V26.9785H155V89.978H171.004V56.2134C171.004 50.5731 172.293 46.9888 174.324 44.7129C176.487 42.2941 178.934 41.2166 182.965 41.2166C186.92 41.2166 189.214 42.2281 191.136 44.3501C192.971 46.3731 194.14 49.5286 194.14 54.6411V89.989H210.046V56.2244C210.046 50.5841 211.334 46.9998 213.366 44.7239C215.529 42.3051 217.976 41.2276 222.007 41.2276C225.885 41.2276 228.146 42.2281 230.08 44.3611C231.915 46.3841 233.095 49.5396 233.095 54.6521V90H249V53.8715C249 45.5155 246.695 38.358 241.681 33.3774C236.907 28.5068 230.408 26.011 223.176 26.011C217.954 26.011 213.017 27.4183 208.756 30.2C206.845 31.4314 205.261 33.0366 203.841 34.7737C202.355 32.9816 200.695 31.3434 198.706 30.09C194.468 27.3633 189.476 26.022 184.112 26.022L184.134 26Z" fill="white"/>
<path d="M119.495 26L118.941 26.0218C113.915 26.0981 109.124 27.3079 104.854 29.5858C104.407 29.8038 103.981 30.0872 103.555 30.327C99.2537 32.8774 95.7612 36.5286 93.2271 41.03H93.1739L93.0142 41.3242L93.0461 41.2697L93.0674 41.248C93.0462 41.2807 93.0355 41.3024 93.0142 41.3242C90.299 46.1962 89 51.8529 89 58.0327C89 64.1907 90.2564 69.8692 92.8757 74.7738L92.9077 74.8174L92.929 74.8392C95.5803 79.5913 99.275 83.4169 103.821 86.0872L103.875 86.1199H103.896C108.517 88.7139 113.745 90 119.303 90C124.786 90 129.961 88.7139 134.593 86.1962H134.763L134.955 86C139.597 83.3297 143.356 79.4823 145.996 74.6758C148.69 69.7602 150 64.1035 150 57.9782C150 51.8093 148.701 46.1635 145.996 41.3024C143.398 36.4632 139.619 32.5831 134.923 29.9782C130.281 27.3297 125.053 26 119.495 26ZM119.399 41.139H119.463C122.178 41.1608 124.531 41.7493 126.788 43.0027L126.81 43.0245L126.863 43.0572C128.992 44.1907 130.664 45.8583 132.08 48.4523L132.123 48.5177C133.432 50.8719 134.21 53.9782 134.21 58.0763C134.21 62.0109 133.454 65.0191 132.155 67.4169L132.027 67.733C130.621 70.2616 128.928 71.9619 126.756 73.1717C124.467 74.3815 122.071 74.9918 119.303 74.9918C116.545 74.9918 114.16 74.3924 111.871 73.1826C109.795 71.9836 108.123 70.2943 106.718 67.7984C105.429 65.357 104.684 62.1962 104.684 58.0872C104.684 53.9782 105.429 50.8501 106.696 48.485C108.123 45.891 109.795 44.2234 111.924 43.0899L111.956 43.0681L111.999 43.0354C114.277 41.7711 116.652 41.1499 119.388 41.1499L119.399 41.139Z" fill="white"/>
<path d="M90.9896 26L86.5874 26.022C81.5549 25.857 76.512 28.6062 73.3917 31.3113V26.9897H58V90H73.3917V55.2619C73.3917 45.8598 78.7393 42.4069 84.8119 42.4069H91V26H90.9896Z" fill="white"/>
<path d="M0 11V90H16.0325V60.2957H25.2798C33.7064 60.2957 40.7978 58.271 45.7552 53.5539C50.5376 49.0259 53 42.7068 53 35.6979C53 28.6223 50.4939 22.2476 45.635 17.7196C40.6775 13.0248 33.6298 11 25.2798 11H0ZM16.0325 26.197H25.2798C30.2591 26.197 33.1371 27.3318 34.4285 28.5556C35.9059 29.9351 36.7706 31.8931 36.7706 35.6979C36.7706 39.4582 35.917 41.2716 34.363 42.6289C32.8419 43.9528 29.9855 44.9986 25.2798 44.9986H16.0325V26.197Z" fill="white"/>
<rect x="508" y="25" width="49" height="16" fill="white"/>
<rect x="454" y="25" width="51" height="16" fill="white"/>
</svg>
