<svg width="832" height="116" viewBox="0 0 832 116" fill="none" xmlns="http://www.w3.org/2000/svg">
<g clip-path="url(#clip0_33_529)">
<path d="M759 24.7626L759.374 25.6729L786.16 91.5749L776.634 109.75H796.06L832 24.75H812.648L796.06 68.3392L778.925 24.75H759V24.7626Z" fill="white"/>
<path d="M758.168 1.75C749.65 1.75 742.565 3.41234 737.603 7.87043L737.565 7.90821L737.526 7.97118C732.96 12.19 731.042 18.4741 730.863 25.5894H722V42.7921H730.709V97.75H749.446V42.7921H764V25.5894H749.65C749.727 19.5824 753.474 19.1164 758.181 19.0912H763.54V1.77519L758.168 1.75Z" fill="white"/>
<path d="M708.474 1.75C705.52 1.75 702.54 2.96471 700.439 4.95128C698.234 6.9758 697 9.94932 697 12.8216C697 15.7192 698.221 18.6927 700.374 20.7679C702.487 22.7924 705.507 24.0198 708.5 24.0198C711.493 24.0198 714.513 22.805 716.626 20.7679C718.779 18.6927 720 15.7192 720 12.8216C720 9.94932 718.753 6.9758 716.547 4.95128C714.447 2.96471 711.467 1.75 708.513 1.75H708.474ZM698.864 26.2467V98.75H718.096V26.2467H698.864Z" fill="white"/>
<path d="M613.299 24.7629L613.962 25.8088L637.022 61.7435L613 98.75H634.643L647.538 78.0388L660.902 98.75H683L659.043 61.4207L682.831 24.75H661.317L648.552 45.1384L635.397 24.75H613.299V24.7629Z" fill="white"/>
<path d="M583.506 23.7883H583.099L583.06 23.8522C576.74 23.9288 570.802 25.4101 565.502 28.2962L565.451 28.2452L565.017 28.4878C564.992 28.4878 564.992 28.5133 564.966 28.5261C559.564 31.5144 555.219 35.9201 552.071 41.373H552.008L551.817 41.705C548.567 47.4134 547 54.0412 547 61.2819C547 68.4972 548.516 75.1377 551.651 80.8971L551.676 80.9482L551.702 80.9737C554.875 86.5288 559.284 91.0112 564.724 94.1399L564.775 94.1782L564.814 94.2038C570.356 97.2431 576.6 98.75 583.252 98.75C589.827 98.75 596.006 97.2431 601.549 94.2932H601.804L601.995 94.0505C607.538 90.9218 612.036 86.4139 615.196 80.795C616.56 78.3686 617.617 75.789 618.395 73.0817L618.649 72.2261H598.67L598.478 72.5709C596.784 75.5336 594.771 77.513 592.171 78.9305C589.432 80.3608 586.565 81.0631 583.252 81.0631C579.951 81.0631 577.097 80.3608 574.358 78.9433C571.873 77.5385 569.872 75.5591 568.178 72.6092C567.515 71.3833 567.056 69.9019 566.661 68.3439H619.452L619.541 67.7692C619.847 65.6494 620 63.4784 620 61.2436C620 54.0156 618.446 47.3878 615.196 41.6923C612.087 36.0223 607.576 31.5016 601.957 28.4367C596.427 25.3207 590.171 23.75 583.506 23.75V23.7883ZM583.392 41.5135H583.494C591.432 41.7178 596.886 45.8043 599.829 52.9302H566.891C569.847 45.5361 575.988 41.5901 583.392 41.5135Z" fill="white"/>
<path d="M511.16 12.75V27.7839H502V44.8949H511.16V74.3941C511.16 81.8121 513.228 88.2905 518.109 92.6301L518.148 92.6796L518.226 92.7414C523.304 97.118 530.553 98.75 539.282 98.75H544.764V81.9234L539.452 81.7503C535.225 81.6267 533.537 80.687 532.359 79.3765C531.221 78.1154 530.37 75.7788 530.331 72.0697V44.9073H545V27.8086H530.331V12.7747L511.16 12.75Z" fill="white"/>
<path d="M469.411 25.7626C463.107 25.7626 457.315 27.386 452.354 30.5573L452.293 30.4944L451.902 30.7587L451.853 30.7839L451.829 30.809C451.401 31.0985 451.12 31.3879 450.79 31.7025V26.6435H433L433 113.75H450.79V93.7198C451.132 94.0344 451.438 94.349 451.865 94.6385L451.951 94.7392L452.024 94.7895C457.07 98.0741 463.009 99.6598 469.424 99.6598C475.545 99.6598 481.288 98.1119 486.346 95.079H486.419L486.566 94.9909C491.759 91.8699 495.877 87.3268 498.699 81.714C501.607 76.0635 503 69.6076 503 62.5853C503 55.5757 501.595 49.1575 498.675 43.5699C495.864 37.9697 491.734 33.4644 486.542 30.4189C481.642 27.4363 476.034 25.9639 470.108 25.8507V25.75L469.411 25.7626ZM467.884 43.2049V43.2301H467.982C471.403 43.2553 474.213 43.9726 476.755 45.4576C479.259 46.9174 481.117 48.8932 482.607 51.8632L482.632 51.9135L482.668 51.9639C484.159 54.7451 484.99 58.2059 484.99 62.6105C484.99 66.9396 484.171 70.4508 482.632 73.4459L482.583 73.534V73.5592C481.092 76.4914 479.21 78.5301 476.706 80.0529C474.152 81.5253 471.33 82.2804 467.884 82.2804C464.622 82.2804 461.836 81.5127 459.172 79.9396C456.631 78.3917 454.688 76.3152 453.112 73.3201C451.584 70.413 450.766 66.99 450.766 62.7489C450.766 58.4953 451.584 55.0849 453.112 52.1652C454.688 49.1701 456.631 47.081 459.16 45.5457C461.836 43.9726 464.622 43.2049 467.884 43.2049Z" fill="white"/>
<path d="M351.473 25.75C346.265 25.75 341.294 26.9915 336.902 29.4495C336.676 29.5749 336.563 29.7003 336.387 29.8383V26.8661H318V98.7249H336.387V60.2121C336.387 53.7787 337.868 49.6904 340.202 47.0944C342.688 44.3355 345.499 43.1065 350.13 43.1065C354.674 43.1065 357.309 44.2602 359.518 46.6806C361.627 48.9881 362.97 52.5873 362.97 58.4188V98.7375H381.244V60.2247C381.244 53.7912 382.725 49.7029 385.059 47.107C387.544 44.348 390.356 43.119 394.987 43.119C399.442 43.119 402.041 44.2602 404.262 46.6931C406.371 49.0006 407.726 52.5999 407.726 58.4313V98.75H426V57.5409C426 48.0099 423.352 39.8459 417.591 34.1649C412.106 28.6093 404.638 25.7625 396.33 25.7625C390.33 25.7625 384.658 27.3678 379.763 30.5406C377.566 31.9451 375.746 33.7761 374.115 35.7576C372.408 33.7134 370.5 31.8448 368.216 30.4152C363.346 27.305 357.61 25.7751 351.448 25.7751L351.473 25.75Z" fill="white"/>
<path d="M277.994 25.75L277.358 25.7749C271.591 25.8619 266.093 27.2418 261.193 29.8401C260.68 30.0887 260.192 30.412 259.703 30.6855C254.766 33.5945 250.759 37.7592 247.851 42.8936H247.79L247.606 43.2292L247.643 43.1671L247.668 43.1422C247.643 43.1795 247.631 43.2044 247.606 43.2292C244.491 48.7863 243 55.2384 243 62.2873C243 69.3113 244.442 75.7883 247.448 81.3827L247.484 81.4324L247.509 81.4573C250.551 86.8776 254.791 91.2411 260.008 94.287L260.069 94.3243H260.094C265.397 97.283 271.396 98.75 277.774 98.75C284.066 98.75 290.005 97.283 295.32 94.4113H295.515L295.735 94.1875C301.062 91.1417 305.376 86.7532 308.406 81.2708C311.497 75.664 313 69.2118 313 62.2251C313 55.1887 311.509 48.749 308.406 43.2044C305.424 37.6846 301.087 33.2588 295.699 30.2876C290.371 27.2667 284.372 25.75 277.994 25.75ZM277.884 43.0179H277.957C281.073 43.0427 283.773 43.7141 286.364 45.1437L286.388 45.1686L286.449 45.2059C288.893 46.4988 290.811 48.4009 292.436 51.3597L292.485 51.4343C293.988 54.1196 294.88 57.6626 294.88 62.337C294.88 66.8249 294.012 70.2561 292.522 72.9911L292.375 73.3517C290.762 76.2359 288.819 78.1752 286.327 79.5552C283.7 80.9351 280.951 81.6313 277.774 81.6313C274.609 81.6313 271.872 80.9475 269.245 79.5676C266.863 78.2001 264.944 76.2732 263.332 73.4263C261.853 70.6415 260.998 67.0363 260.998 62.3495C260.998 57.6626 261.853 54.0947 263.307 51.397C264.944 48.4382 266.863 46.5361 269.307 45.2432L269.343 45.2183L269.392 45.181C272.007 43.7389 274.732 43.0303 277.872 43.0303L277.884 43.0179Z" fill="white"/>
<path d="M244.988 25.75L239.919 25.7751C234.124 25.5869 228.317 28.7227 224.724 31.8082V26.8789H207V98.75H224.724V59.1268C224.724 48.4026 230.882 44.4641 237.874 44.4641H245V25.75H244.988Z" fill="white"/>
<path d="M141 8.75V98.75H159.453V64.9097H170.096C179.794 64.9097 187.956 62.603 193.662 57.2291C199.166 52.0707 202 44.8717 202 36.8869C202 28.826 199.116 21.5637 193.523 16.4053C187.818 11.0567 179.706 8.75 170.096 8.75H141ZM159.453 26.0631H170.096C175.827 26.0631 179.139 27.3558 180.625 28.75C182.326 30.3216 183.321 32.5523 183.321 36.8869C183.321 41.1708 182.338 43.2367 180.55 44.7829C178.799 46.2912 175.512 47.4826 170.096 47.4826H159.453V26.0631Z" fill="white"/>
<rect x="722" y="24.75" width="56" height="18" fill="white"/>
<rect x="660" y="24.75" width="59" height="18" fill="white"/>
<rect width="115" height="116" rx="57.5" fill="white"/>
<rect x="56.2606" y="40.6834" width="48.9782" height="31.0443" transform="rotate(72.666 56.2606 40.6834)" fill="black" stroke="black"/>
<rect x="81.7209" y="18.6263" width="25.6854" height="24.5178" transform="rotate(72.666 81.7209 18.6263)" fill="black" stroke="black"/>
</g>
<defs>
<clipPath id="clip0_33_529">
<rect width="832" height="116" fill="white"/>
</clipPath>
</defs>
</svg>
