<svg width="604" height="141" viewBox="0 0 604 141" fill="none" xmlns="http://www.w3.org/2000/svg">
<g clip-path="url(#clip0_32_24)">
<path d="M584.624 109.949C581.958 117.831 577.996 123.762 572.738 127.74C567.481 131.792 560.445 134.075 551.633 134.591L549.633 122.215C555.262 121.478 559.409 120.226 562.075 118.458C564.815 116.69 566.999 113.853 568.628 109.949H562.519L543.857 51.2727H562.408L573.849 98.7884L586.29 51.2727H604.286L584.624 109.949Z" fill="#0E0E0E"/>
<path d="M536.987 20.9194C544.956 20.9194 552.066 22.2476 558.316 24.9041L553.159 36.9751C549.175 35.4125 544.76 34.6312 539.916 34.6312C536.244 34.6312 533.588 35.2953 531.947 36.6235C530.385 37.9518 529.603 40.1394 529.603 43.1865V51.5073H549.878L547.768 64.3987H529.603V109.87H511.204V64.3987H498.078V51.5073H511.204V42.6005C511.204 36.1938 513.43 30.9982 517.884 27.0136C522.415 22.9508 528.783 20.9194 536.987 20.9194Z" fill="#0E0E0E"/>
<path d="M475.43 15.0596C478.633 15.0596 481.251 16.0753 483.282 18.1066C485.313 20.0599 486.329 22.521 486.329 25.4899C486.329 28.537 485.313 31.0371 483.282 32.9904C481.251 34.9436 478.633 35.9202 475.43 35.9202C472.227 35.9202 469.57 34.9436 467.461 32.9904C465.429 30.959 464.414 28.4588 464.414 25.4899C464.414 22.521 465.429 20.0599 467.461 18.1066C469.57 16.0753 472.227 15.0596 475.43 15.0596ZM486.564 97.2131H502.502V109.87H450.468V97.2131H468.047V60.2968H451.054V47.6397H486.564V97.2131Z" fill="#0E0E0E"/>
<path d="M380.883 109.87L402.213 77.1727L382.876 47.6396H403.619L413.581 67.5628L423.191 47.6396H442.879L424.597 76.4696L446.044 109.87H425.066L412.76 86.5483L400.924 109.87H380.883Z" fill="#0E0E0E"/>
<path d="M342.07 84.2044C343.241 93.6582 348.242 98.385 357.07 98.385C362.383 98.385 367.696 96.6662 373.009 93.2284L380.392 103.307C377.345 105.964 373.712 108.073 369.493 109.636C365.274 111.12 360.625 111.862 355.547 111.862C348.593 111.862 342.695 110.495 337.851 107.761C333.006 104.948 329.334 101.08 326.834 96.1583C324.412 91.158 323.201 85.3764 323.201 78.8135C323.201 72.5631 324.373 66.9377 326.717 61.9374C329.139 56.859 332.616 52.8744 337.147 49.9836C341.757 47.0146 347.226 45.5302 353.555 45.5302C359.493 45.5302 364.649 46.8193 369.024 49.3976C373.4 51.8977 376.759 55.5698 379.103 60.4139C381.525 65.1798 382.736 70.8833 382.736 77.5243C382.736 80.1026 382.619 82.3293 382.385 84.2044H342.07ZM353.555 57.9528C350.195 57.9528 347.5 59.2029 345.468 61.703C343.437 64.1251 342.226 67.8753 341.835 72.9537H364.688C364.532 62.9531 360.821 57.9528 353.555 57.9528Z" fill="#0E0E0E"/>
<path d="M324.776 106.237C318.916 109.987 312.119 111.862 304.384 111.862C296.415 111.862 290.399 109.831 286.336 105.768C282.352 101.705 280.359 96.0019 280.359 88.6577V60.4138H267.351V47.6395H280.359V34.1621L298.876 31.9354V47.6395H318.916L317.041 60.4138H298.876V88.6577C298.876 91.7048 299.579 93.8924 300.985 95.2206C302.392 96.5488 304.658 97.2129 307.783 97.2129C311.689 97.2129 315.322 96.2754 318.682 94.4003L324.776 106.237Z" fill="#0E0E0E"/>
<path d="M249.779 45.5302C254.232 45.5302 257.475 47.0146 259.506 49.9836C261.616 52.8744 262.67 57.484 262.67 63.8125V109.87H246.849V65.922C246.849 63.6563 246.615 62.0937 246.146 61.2343C245.755 60.3748 244.974 59.9451 243.802 59.9451C241.614 59.9451 239.466 61.3124 237.356 64.0469V109.87H224.23V65.922C224.23 63.6563 223.996 62.0937 223.527 61.2343C223.137 60.3748 222.355 59.9451 221.183 59.9451C218.996 59.9451 216.847 61.3124 214.738 64.0469V109.87H198.682V47.6397H212.159L213.448 53.6166C215.48 50.8039 217.472 48.7725 219.425 47.5225C221.457 46.1943 223.801 45.5302 226.457 45.5302C228.879 45.5302 230.91 46.1552 232.551 47.4053C234.192 48.5772 235.364 50.4133 236.067 52.9134C240.286 47.9912 244.857 45.5302 249.779 45.5302Z" fill="#0E0E0E"/>
<path d="M162.996 45.5302C172.45 45.5302 179.833 48.5382 185.146 54.5542C190.537 60.492 193.232 68.5003 193.232 78.5791C193.232 89.0485 190.576 97.2131 185.263 103.073C179.95 108.933 172.528 111.862 162.996 111.862C153.464 111.862 146.042 108.972 140.729 103.19C135.416 97.3303 132.76 89.1657 132.76 78.6963C132.76 72.0552 133.932 66.2736 136.276 61.3514C138.698 56.3511 142.174 52.4837 146.706 49.7492C151.316 46.9365 156.746 45.5302 162.996 45.5302ZM162.996 59.2419C159.168 59.2419 156.355 60.8045 154.558 63.9297C152.761 66.9768 151.863 71.899 151.863 78.6963C151.863 85.5717 152.761 90.572 154.558 93.6972C156.355 96.7443 159.168 98.2678 162.996 98.2678C166.824 98.2678 169.637 96.7052 171.434 93.58C173.231 90.4548 174.13 85.4545 174.13 78.5791C174.13 71.8599 173.231 66.9768 171.434 63.9297C169.637 60.8045 166.824 59.2419 162.996 59.2419Z" fill="#0E0E0E"/>
<path d="M120.125 45.7645C123.875 45.7645 127.313 46.3896 130.438 47.6396L127.039 73.6569H115.32V62.1718C111.882 62.7968 108.835 64.672 106.179 67.7972C103.522 70.9223 101.452 74.8679 99.9672 79.6338V97.4474H112.273V109.87H73.2468V97.4474H81.4505V59.9451H73.2468V47.6396H95.631L98.9125 61.5858C101.178 56.273 104.03 52.3274 107.468 49.7492C110.905 47.0927 115.124 45.7645 120.125 45.7645Z" fill="#0E0E0E"/>
<rect x="429.409" y="47.6104" width="50.3571" height="12.8182" fill="#0E0E0E"/>
<path d="M73.728 60.224C73.728 70.208 70.5707 77.76 64.256 82.88C58.0267 87.9147 49.4933 90.432 38.656 90.432H28.928V120H7.936V31.296H35.84C48.128 31.296 57.5147 33.728 64 38.592C70.4853 43.3707 73.728 50.5813 73.728 60.224ZM52.224 60.224C52.224 50.9227 46.8907 46.272 36.224 46.272H28.928V75.328H37.248C42.0267 75.328 45.696 74.0907 48.256 71.616C50.9013 69.1413 52.224 65.344 52.224 60.224Z" fill="#0E0E0E"/>
<rect x="561.984" y="108.157" width="9.62411" height="10.9876" transform="rotate(-17.322 561.984 108.157)" fill="#0E0E0E"/>
</g>
<defs>
<clipPath id="clip0_32_24">
<rect width="604" height="141" fill="white"/>
</clipPath>
</defs>
</svg>
